<svg xmlns="http://www.w3.org/2000/svg" viewBox="0 0 31 41" width="31" height="41">
	<style>
		tspan { white-space:pre }
		.shp0 { fill: #000000 } 
	</style>
	<g id="Latest Project">
		<g id="Items">
			<path id="Icon-Locked" fill-rule="evenodd" class="shp0" d="M15.97 1.77C21.12 1.77 25.3 5.43 25.3 9.94L25.3 19.27L26.47 19.27C28.4 19.27 29.97 20.84 29.97 22.77L29.97 35.6C29.97 37.54 28.4 39.1 26.47 39.1L5.47 39.1C3.54 39.1 1.97 37.54 1.97 35.6L1.97 22.77C1.97 20.84 3.54 19.27 5.47 19.27L6.64 19.27L6.64 9.94C6.64 5.43 10.81 1.77 15.97 1.77ZM11.3 9.94L11.3 18.11C11.3 18.51 11.4 18.91 11.57 19.27L20.37 19.27C20.54 18.91 20.63 18.51 20.63 18.11L20.63 9.94C20.63 8.01 18.55 6.44 15.97 6.44C13.39 6.44 11.3 8.01 11.3 9.94ZM13.63 33.27C13.63 34.56 14.68 35.6 15.97 35.6C17.26 35.6 18.3 34.56 18.3 33.27L18.3 31.48C19.7 30.67 20.63 29.17 20.63 27.44C20.63 24.86 18.55 22.77 15.97 22.77C13.39 22.77 11.3 24.86 11.3 27.44C11.3 29.17 12.24 30.67 13.63 31.48L13.63 33.27Z" />
		</g>
	</g>
</svg>