<svg xmlns="http://www.w3.org/2000/svg" viewBox="0 0 35 34" width="35" height="34">
	<style>
		tspan { white-space:pre }
		.shp0 { fill: #cccccc } 
	</style>
	<g id="Just Relax">
		<g id="Folder 2">
			<g id="Folder 2">
				<g id="Folder 2">
					<g id="Folder 2">
						<g id="Folder 2">
						</g>
						<path id="Circle-2" class="shp0" d="M1.97 16.7C1.97 25.36 9.01 32.4 17.67 32.4C26.32 32.4 33.37 25.36 33.37 16.7C33.37 8.05 26.32 1 17.67 1C9.01 1 1.97 8.05 1.97 16.7ZM3.22 16.7C3.22 8.74 9.7 2.26 17.67 2.26C25.63 2.26 32.11 8.74 32.11 16.7C32.11 24.67 25.63 31.15 17.67 31.15C9.7 31.15 3.22 24.67 3.22 16.7Z" />
						<path id="Checkmark-2" class="shp0" d="M16.2 22.86C15.93 22.86 15.67 22.76 15.46 22.55L11.15 18.24C10.75 17.84 10.75 17.18 11.15 16.78C11.55 16.38 12.21 16.38 12.61 16.78L16.2 20.36L24.78 11.78C25.19 11.37 25.84 11.37 26.25 11.78C26.65 12.18 26.65 12.83 26.25 13.24L16.93 22.55C16.72 22.76 16.46 22.86 16.2 22.86Z" />
					</g>
				</g>
			</g>
		</g>
	</g>
</svg>