<svg xmlns="http://www.w3.org/2000/svg" viewBox="0 0 391 418" width="391" height="418">
	<style>
		tspan { white-space:pre }
		.shp0 { fill: #ffffff } 
	</style>
	<g id="Just Relax">
		<path id="gear 2" fill-rule="evenodd" class="shp0" d="M363.3 250.51L332 250.51C328.98 261.92 324.82 272.8 319.54 282.94L341.49 306.45C351.63 317.31 351.63 334.91 341.49 345.76L323.14 365.42C313 376.28 296.56 376.28 286.43 365.42L264.47 341.91C255 347.57 244.84 352.02 234.19 355.25L234.19 388.78C234.19 404.05 222.63 416.43 208.37 416.43L182.55 416.43C168.28 416.43 156.72 404.05 156.72 388.78L156.72 355.25C145.69 351.91 135.21 347.2 125.44 341.26L102.87 365.42C92.74 376.28 76.3 376.28 66.16 365.42L47.81 345.76C37.67 334.91 37.67 317.31 47.81 306.45L70.77 281.87C65.75 272.04 61.83 261.51 58.92 250.51L27.61 250.51C13.35 250.51 1.79 238.13 1.79 222.86L1.79 195.21C1.79 179.93 13.35 167.55 27.61 167.55L58.92 167.55C61.94 156.15 66.1 145.27 71.38 135.12L47.81 109.88C37.67 99.03 37.67 81.43 47.81 70.57L66.16 50.91C76.3 40.06 92.74 40.06 102.87 50.91L126.44 76.15C135.92 70.5 146.07 66.04 156.72 62.81L156.72 29.29C156.72 14.01 168.28 1.63 182.55 1.63L208.37 1.63C222.63 1.63 234.19 14.01 234.19 29.29L234.19 62.81C244.46 65.93 254.29 70.13 263.47 75.5L286.43 50.91C296.56 40.06 313 40.06 323.14 50.91L341.49 70.57C351.63 81.43 351.63 99.03 341.49 109.88L318.93 134.05C324.48 144.51 328.87 155.73 332 167.55L363.3 167.55C377.57 167.55 389.13 179.93 389.13 195.21L389.13 222.86C389.13 238.13 377.57 250.51 363.3 250.51ZM117.99 209.03C117.99 254.85 152.67 291.99 195.46 291.99C238.24 291.99 272.92 254.85 272.92 209.03C272.92 163.22 238.24 126.07 195.46 126.07C152.67 126.07 117.99 163.22 117.99 209.03ZM195.46 167.55C216.85 167.55 234.19 186.12 234.19 209.03C234.19 231.94 216.85 250.51 195.46 250.51C174.07 250.51 156.72 231.94 156.72 209.03C156.72 186.12 174.07 167.55 195.46 167.55Z" />
	</g>
</svg>