<svg xmlns="http://www.w3.org/2000/svg" viewBox="0 0 53 50" width="53" height="50">
	<style>
		tspan { white-space:pre }
		.shp0 { fill: #777777 } 
	</style>
	<g id="6th">
		<g id="Items">
			<path id="Icon-Star" class="shp0" d="M40.25 48.08C39.84 48.08 39.43 47.97 39.07 47.73L26.4 39.5L13.72 47.73C12.96 48.22 11.98 48.2 11.25 47.66C10.53 47.12 10.21 46.19 10.45 45.32L14.42 31.22L2.57 21.18C1.9 20.61 1.64 19.69 1.91 18.85C2.18 18.02 2.94 17.43 3.82 17.36L18.03 16.34L24.42 2.32C24.78 1.55 25.55 1.05 26.4 1.05C27.24 1.05 28.01 1.55 28.37 2.32L34.76 16.34L48.97 17.36C49.85 17.43 50.61 18.02 50.88 18.85C51.15 19.69 50.89 20.61 50.22 21.18L38.37 31.22L42.34 45.32C42.58 46.19 42.27 47.12 41.54 47.66C41.16 47.94 40.71 48.08 40.25 48.08ZM26.4 34.75C26.81 34.75 27.22 34.86 27.57 35.1L36.61 40.96L33.82 31.05C33.59 30.24 33.86 29.36 34.5 28.81L43.36 21.31L33.17 20.57C32.38 20.52 31.68 20.03 31.35 19.31L26.4 8.44L21.44 19.31C21.11 20.03 20.41 20.52 19.62 20.57L9.43 21.31L18.29 28.81C18.93 29.36 19.2 30.24 18.97 31.05L16.18 40.96L25.22 35.1C25.57 34.86 25.98 34.75 26.4 34.75Z" />
		</g>
	</g>
</svg>