<svg xmlns="http://www.w3.org/2000/svg" viewBox="0 0 37 49" width="37" height="49">
	<style>
		tspan { white-space:pre }
		.shp0 { fill: #777777 } 
	</style>
	<g id="6th">
		<g id="Items">
			<path id="Icon-Graph" class="shp0" d="M32.13 1.24C30.14 1.24 28.54 2.84 28.54 4.82L28.54 43.55C28.54 45.53 30.14 47.14 32.13 47.14C34.11 47.14 35.72 45.53 35.72 43.55L35.72 4.82C35.72 2.84 34.11 1.24 32.13 1.24ZM18.68 14.02C16.69 14.02 15.09 15.62 15.09 17.6L15.09 43.55C15.09 45.53 16.69 47.14 18.68 47.14C20.66 47.14 22.27 45.53 22.27 43.55L22.27 17.6C22.27 15.62 20.66 14.02 18.68 14.02ZM5.23 26.8C3.24 26.8 1.63 28.4 1.63 30.38L1.63 43.55C1.63 45.53 3.24 47.14 5.23 47.14C7.21 47.14 8.82 45.53 8.82 43.55L8.82 30.38C8.82 28.4 7.21 26.8 5.23 26.8Z" />
		</g>
	</g>
</svg>