<svg xmlns="http://www.w3.org/2000/svg" viewBox="0 0 49 49" width="49" height="49">
	<style>
		tspan { white-space:pre }
		.shp0 { fill: #777777 } 
	</style>
	<g id="6th">
		<g id="Items">
			<path id="Icon-Music" class="shp0" d="M47.63 3.34C47.64 2.72 47.36 2.12 46.88 1.73C46.4 1.34 45.76 1.19 45.15 1.32L18.2 7.08C17.26 7.28 16.58 8.11 16.57 9.07L16.39 33.22C14.89 32.33 13.07 31.8 11.1 31.78L11.02 31.78C5.88 31.78 1.68 35.35 1.65 39.73C1.61 44.15 5.8 47.79 10.98 47.83L11.07 47.83C16.2 47.83 20.4 44.26 20.44 39.88L20.44 39.88L20.44 39.88L20.6 18.82L43.45 13.93L43.35 27.46C41.85 26.57 40.03 26.03 38.06 26.02L37.97 26.02C32.84 26.02 28.64 29.58 28.6 33.97C28.57 38.39 32.76 42.02 37.94 42.06L38.02 42.06C42.76 42.06 46.69 39.03 47.31 35.12C47.36 34.94 47.39 34.76 47.39 34.57L47.63 3.34ZM11.07 43.72L11.01 43.72C8.14 43.7 5.73 41.89 5.75 39.76C5.76 37.62 8.13 35.88 11.02 35.88L11.07 35.88C13.94 35.91 16.35 37.72 16.34 39.85C16.32 41.98 13.96 43.72 11.07 43.72ZM20.62 15.67L20.66 10.75L43.51 5.86L43.48 10.78L20.62 15.67ZM38.02 37.96L37.97 37.96C35.1 37.94 32.69 36.12 32.7 34C32.72 31.86 35.08 30.12 37.97 30.12L38.03 30.12C40.9 30.14 43.31 31.96 43.3 34.08C43.28 36.22 40.92 37.96 38.02 37.96Z" />
		</g>
	</g>
</svg>