<svg xmlns="http://www.w3.org/2000/svg" viewBox="0 0 42 54" width="42" height="54">
	<style>
		tspan { white-space:pre }
		.shp0 { fill: #000000 } 
	</style>
	<g id="Professional Services">
		<path id="Icon - Mobile" class="shp0" d="M36.15 1.73L5.67 1.73C3.06 1.73 1.37 3.34 1.37 5.84L1.37 48.28C1.37 50.78 3.06 52.39 5.67 52.39L36.15 52.39C38.77 52.39 40.46 50.78 40.46 48.28L40.46 5.84C40.46 3.34 38.77 1.73 36.15 1.73ZM37.17 48.28C37.17 48.74 37.17 49.1 36.15 49.1L5.67 49.1C4.66 49.1 4.66 48.74 4.66 48.28L4.66 5.84C4.66 5.38 4.66 5.02 5.67 5.02L36.15 5.02C37.17 5.02 37.17 5.38 37.17 5.84L37.17 48.28ZM33.96 7.66L7.87 7.66C7.26 7.66 6.77 8.16 6.77 8.76L6.77 41.88C6.77 42.49 7.26 42.98 7.87 42.98L33.96 42.98C34.57 42.98 35.06 42.49 35.06 41.88L35.06 8.76C35.06 8.16 34.57 7.66 33.96 7.66ZM32.87 40.78L8.96 40.78L8.96 9.86L32.87 9.86L32.87 40.78ZM19.56 44.74C19.2 45.1 19 45.59 19 46.1C19 46.61 19.2 47.1 19.56 47.46C19.91 47.81 20.41 48.02 20.92 48.02C21.42 48.02 21.91 47.81 22.27 47.46C22.62 47.1 22.83 46.61 22.83 46.1C22.83 45.6 22.62 45.1 22.27 44.74C21.56 44.03 20.27 44.03 19.56 44.74Z" />
	</g>
</svg>