<svg xmlns="http://www.w3.org/2000/svg" viewBox="0 0 58 50" width="58" height="50">
	<style>
		tspan { white-space:pre }
		.shp0 { fill: #000000 } 
	</style>
	<g id="Professional Services">
		<path id="Icon - Heart" class="shp0" d="M53.73 10.78C51.28 5.28 46.06 1.72 40.45 1.72C34.76 1.72 31.1 4.25 28.99 6.95C26.87 4.25 23.21 1.72 17.52 1.72C11.91 1.72 6.69 5.28 4.24 10.78C1.7 16.46 2.82 22.79 7.23 27.71C17.92 39.61 27.36 48.05 27.46 48.14C27.89 48.53 28.44 48.72 28.99 48.72C29.53 48.72 30.08 48.53 30.52 48.14C30.61 48.05 40.05 39.61 50.74 27.71C55.15 22.79 56.27 16.46 53.73 10.78ZM47.32 24.64C39.32 33.55 32.05 40.47 28.99 43.31C25.92 40.47 18.65 33.55 10.65 24.64C7.44 21.06 6.63 16.69 8.43 12.65C10.13 8.86 13.78 6.32 17.52 6.32C24.93 6.32 26.59 11.82 26.75 12.43C27 13.45 27.93 14.18 28.99 14.18C30.04 14.18 30.97 13.45 31.22 12.43C31.28 12.18 32.8 6.32 40.45 6.32C44.19 6.32 47.85 8.86 49.54 12.65C51.34 16.69 50.53 21.06 47.32 24.64ZM40.42 8.82C39.16 8.64 38.01 9.53 37.84 10.78C37.66 12.04 38.55 13.2 39.8 13.37C39.92 13.39 42.75 13.82 43.02 17.86C43.1 19.07 44.11 20 45.31 20C45.36 20 45.41 20 45.47 20C46.73 19.92 47.69 18.82 47.61 17.56C47.2 11.36 42.73 9.13 40.42 8.82ZM42.53 21C41.93 21 41.34 21.24 40.9 21.67C40.48 22.09 40.23 22.68 40.23 23.29C40.23 23.9 40.48 24.49 40.9 24.92C41.34 25.34 41.93 25.59 42.53 25.59C43.13 25.59 43.73 25.34 44.16 24.92C44.58 24.49 44.83 23.9 44.83 23.29C44.83 22.68 44.58 22.09 44.16 21.67C43.73 21.24 43.13 21 42.53 21Z" />
	</g>
</svg>