<svg xmlns="http://www.w3.org/2000/svg" viewBox="0 0 58 46" width="58" height="46">
	<style>
		tspan { white-space:pre }
		.shp0 { fill: #000000 } 
	</style>
	<g id="Professional Services">
		<path id="Icon - Graph" class="shp0" d="M5.54 44.28C4.98 44.28 4.42 44.13 3.91 43.82C2.42 42.92 1.94 40.98 2.84 39.48L10.08 27.53C10.62 26.63 11.58 26.06 12.63 26.01C13.67 25.96 14.69 26.44 15.32 27.29L18.26 31.28L24.68 20.52C25.22 19.62 26.17 19.05 27.22 18.99C28.28 18.93 29.27 19.4 29.91 20.23L35.48 27.58L50.36 3.23C51.27 1.74 53.21 1.28 54.7 2.19C56.19 3.09 56.65 5.04 55.75 6.52L38.45 34.82C37.91 35.71 36.96 36.28 35.92 36.33C34.89 36.38 33.87 35.91 33.24 35.08L27.7 27.77L21.24 38.59C20.7 39.49 19.74 40.07 18.68 40.12C17.64 40.18 16.62 39.69 15.99 38.84L13.04 34.83L8.24 42.75C7.65 43.73 6.61 44.28 5.54 44.28Z" />
	</g>
</svg>